<svg width="512" height="512" viewBox="0 0 512 512" fill="none" xmlns="http://www.w3.org/2000/svg">
  <rect width="512" height="512" rx="112" fill="#1e2a4a"/>
  <defs>
    <linearGradient id="g" x1="160" y1="120" x2="360" y2="400" gradientUnits="userSpaceOnUse">
      <stop stop-color="#4ec4b4"/>
      <stop offset="1" stop-color="#a99fdc"/>
    </linearGradient>
  </defs>
  <g transform="translate(96,72) scale(10)" stroke="url(#g)" stroke-width="2.4" stroke-linejoin="round" stroke-linecap="round" fill="none">
    <path d="M16 4c-3 0-4.5 2-4.5 4-2 0-3.5 1.5-3.5 3.5 0 1 .5 2 1 2.5-1 .5-1.5 1.5-1.5 3 0 2 1.5 3.5 3.5 3.5.5 2 2 3.5 4 3.5.5 0 1-.15 1.5-.4V6.25C18 4.9 17.4 4 16 4Z"/>
    <path d="M16.5 7c.5-1 1.5-1.5 2.5-1.5 1.5 0 2.5 1 2.5 2.5 1.5 0 2.5 1 2.5 2.5 0 1-.5 1.5-1 2 1 .5 1.5 1.5 1.5 2.5 0 1.5-1 3-3 3-.5 1.5-1.5 2.5-3 2.5"/>
  </g>
</svg>
